<svg xmlns="http://www.w3.org/2000/svg" xmlns:xlink="http://www.w3.org/1999/xlink" viewBox="0 0 1062.99 425.59"><defs><style>.cls-1{fill:url(#dark-grey-Verlauf);}.cls-2{fill:#fff;}.cls-3{fill:none;stroke:#fff;stroke-miterlimit:10;stroke-width:5px;}</style><linearGradient id="dark-grey-Verlauf" x1="-0.98" y1="212.8" x2="1062.01" y2="212.8" gradientUnits="userSpaceOnUse"><stop offset="0.15" stop-color="#505050"/><stop offset="0.85" stop-color="#6e6e6e"/></linearGradient></defs><title>Association_Silver</title><g id="Gestaltungsraster_-_DO_NOT_EDIT" data-name="Gestaltungsraster - DO NOT EDIT"><g id="Silber"><polygon id="Hintergrund" class="cls-1" points="-0.98 425.2 1062.02 425.59 1062.02 213.39 1062.02 0.39 -0.98 0 -0.98 425.2"/><g id="T3_Logo" data-name="T3 Logo"><path class="cls-2" d="M139.88,304.44v49.34H133V304.44H120.82v-6h31.23v6Zm36.9,23.64v25.7h-7.12v-25.7l-14.15-29.65h7.59l10.43,22.37L184,298.43h7.2Zm35.74,4.83h-6.64v20.87H199V298.43s6.81-.56,13.38-.56c12,0,15.49,7.44,15.49,17.17,0,12-4.11,17.87-15.34,17.87m.79-29.34a54.48,54.48,0,0,0-7.43.47v23.09h7.43c4.43,0,7.52-2.93,7.52-11.54,0-7.91-1.91-12-7.52-12m39.38,50.76c-13,0-16.52-9.49-16.52-28.85,0-18.59,3.48-27.61,16.52-27.61s16.52,9,16.52,27.61c0,19.36-3.47,28.85-16.52,28.85m0-50.69c-7.11,0-9.49,4.83-9.49,22.23,0,17,2.38,22.69,9.49,22.69s9.49-5.7,9.49-22.69c0-17.4-2.38-22.23-9.49-22.23m36.37,50.69A60.2,60.2,0,0,1,278.7,353v-5.76a62.2,62.2,0,0,0,10.29,1.2c4,0,6.64-3.41,6.64-9.51,0-7.19-1.18-11-6.8-11h-6.48v-5.78H288c6.42,0,6.72-6.56,6.72-9.72,0-6.25-2-8.79-5.92-8.79a50,50,0,0,0-9.72,1.35v-5.77a48.74,48.74,0,0,1,9.56-1.35c8.14,0,12.81,3.48,12.81,15.27,0,5.38-1.9,10.11-6.09,11.62,4.82.32,7,5.62,7,13.36,0,11.79-4.58,16.21-13.36,16.21"/><path class="cls-2" d="M257.63,196a25.12,25.12,0,0,1-7.66,1.09C226.91,197.11,193,116.5,193,89.68c0-9.88,2.33-13.17,5.64-16-28.23,3.3-62.11,13.66-72.94,26.83C123.4,103.8,122,109,122,115.57c0,41.87,44.7,136.9,76.23,136.9,14.59,0,39.18-24,59.42-56.45"/><path class="cls-2" d="M242.9,70.87c29.17,0,58.36,4.7,58.36,21.17,0,33.4-21.18,73.88-32,73.88C250,165.92,226,112.27,226,85.45c0-12.24,4.71-14.58,16.93-14.58"/></g><path class="cls-2" d="M473.87,107.61h12.22l14.18,45.16H489.46l-5.9-22.87c-1.26-4.52-2.46-9.85-3.67-14.56h-.28c-1.09,4.76-2.29,10-3.55,14.56l-5.93,22.87H459.69ZM469,134.08h21.73V142H469Z"/><path class="cls-2" d="M502.25,148.8l4.58-6.35c3.12,2.36,6,3.61,8.87,3.61s4.34-1.15,4.34-2.95c0-2.27-3.41-3.29-6.94-4.68-4.22-1.63-9.1-4.43-9.1-10.11,0-6.39,5.2-10.76,13.13-10.76a19.49,19.49,0,0,1,12.11,4.36L524.69,128c-2.45-1.77-4.86-2.93-7.24-2.93-2.63,0-3.92,1-3.92,2.74,0,2.19,3.21,3,6.77,4.33,4.36,1.61,9.26,4.06,9.26,10.34s-4.91,11.09-14.11,11.09A22.33,22.33,0,0,1,502.25,148.8Z"/><path class="cls-2" d="M532.94,148.8l4.58-6.35c3.11,2.36,6,3.61,8.87,3.61s4.34-1.15,4.34-2.95c0-2.27-3.41-3.29-6.94-4.68-4.22-1.63-9.1-4.43-9.1-10.11,0-6.39,5.2-10.76,13.13-10.76a19.49,19.49,0,0,1,12.11,4.36L555.38,128c-2.45-1.77-4.86-2.93-7.24-2.93-2.63,0-3.93,1-3.93,2.74,0,2.19,3.22,3,6.78,4.33,4.36,1.61,9.26,4.06,9.26,10.34s-4.91,11.09-14.12,11.09A22.32,22.32,0,0,1,532.94,148.8Z"/><path class="cls-2" d="M564.67,135.59c0-11.42,8.05-18,16.74-18s16.74,6.61,16.74,18-8,18-16.74,18S564.67,147,564.67,135.59Zm23.05,0c0-6-2.1-9.81-6.31-9.81s-6.3,3.86-6.3,9.81,2.09,9.79,6.3,9.79S587.72,141.54,587.72,135.59Z"/><path class="cls-2" d="M603.12,135.59c0-11.42,8.41-18,17.91-18a14.9,14.9,0,0,1,10,3.71l-4.81,6.54a7,7,0,0,0-4.66-2c-4.9,0-8,3.86-8,9.81s3.27,9.79,7.7,9.79a10.33,10.33,0,0,0,6.2-2.54l4,6.67a17.16,17.16,0,0,1-11.33,4.09C610.52,153.6,603.12,147,603.12,135.59Z"/><path class="cls-2" d="M636.68,108.05c0-3.13,2.48-5.33,5.89-5.33s5.9,2.2,5.9,5.33-2.48,5.32-5.9,5.32S636.68,111.14,636.68,108.05Zm.79,10.35h10.18v34.37H637.47Z"/><path class="cls-2" d="M655,143.23c0-7.24,5.76-11.16,19.35-12.59-.2-3-1.7-5-5.43-5-2.89,0-5.76,1.21-9.1,3.1l-3.62-6.68a28.09,28.09,0,0,1,14.68-4.53c8.79,0,13.66,5,13.66,15.56v19.65h-8.31l-.73-3.53h-.26c-2.89,2.55-6.13,4.36-10,4.36C659,153.6,655,149,655,143.23Zm19.35-.45v-6c-7.24,1-9.6,3-9.6,5.64,0,2.22,1.52,3.3,3.94,3.3S672.56,144.58,674.36,142.78Z"/><path class="cls-2" d="M693.23,140.27V126.39h-4.69v-7.6l5.26-.39,1.19-9.13h8.42v9.13h8.24v8h-8.24v13.76c0,3.89,1.77,5.46,4.45,5.46a10.11,10.11,0,0,0,3.27-.66l1.61,7.4a24.24,24.24,0,0,1-7.64,1.25C696.61,153.6,693.23,148.23,693.23,140.27Z"/><path class="cls-2" d="M717.6,108.05c0-3.13,2.47-5.33,5.89-5.33s5.89,2.2,5.89,5.33-2.48,5.32-5.89,5.32S717.6,111.14,717.6,108.05Zm.79,10.35h10.18v34.37H718.39Z"/><path class="cls-2" d="M735.51,135.59c0-11.42,8-18,16.74-18s16.74,6.61,16.74,18-8,18-16.74,18S735.51,147,735.51,135.59Zm23,0c0-6-2.1-9.81-6.31-9.81s-6.3,3.86-6.3,9.81,2.09,9.79,6.3,9.79S758.56,141.54,758.56,135.59Z"/><path class="cls-2" d="M776,118.4h8.31l.74,4.35h.25c2.89-2.78,6.36-5.19,11-5.19,7.48,0,10.66,5.28,10.66,13.87v21.34H796.77v-20c0-4.94-1.33-6.49-4.27-6.49-2.56,0-4.12,1.19-6.36,3.34v23.19H776Z"/><path class="cls-2" d="M463.06,230l3.46-4a17.78,17.78,0,0,0,12.54,5.63c6,0,9.51-3,9.51-7.39,0-4.64-3.29-6.12-7.59-8l-6.53-2.88c-4.23-1.81-9.2-5-9.2-11.71,0-6.95,6.05-12.07,14.31-12.07A18.82,18.82,0,0,1,493,195.23L489.88,199a14.55,14.55,0,0,0-10.32-4.26c-5.1,0-8.48,2.57-8.48,6.64,0,4.38,4,6,7.53,7.52l6.48,2.8c5.26,2.26,9.37,5.4,9.37,12.16,0,7.18-5.94,12.92-15.5,12.92A21.77,21.77,0,0,1,463.06,230Z"/><path class="cls-2" d="M501.77,191.62a3.95,3.95,0,0,1,7.88,0,3.95,3.95,0,0,1-7.88,0Zm1.05,10.61h5.7V235.9h-5.7Z"/><path class="cls-2" d="M519.86,229.14V186.55h5.7v43c0,1.74.76,2.44,1.59,2.44a4.81,4.81,0,0,0,1.24-.14l.78,4.35a9.21,9.21,0,0,1-3.28.53C521.62,236.73,519.86,234,519.86,229.14Z"/><path class="cls-2" d="M532.67,202.23h5.88l6.36,19.12c1,3.29,2.11,6.72,3.11,9.94h.28c1-3.22,2.1-6.65,3.11-9.94l6.36-19.12h5.59L551.45,235.9h-6.63Z"/><path class="cls-2" d="M567.1,219.11c0-11,7.38-17.72,15.14-17.72,8.58,0,13.43,6.17,13.43,15.8a18.45,18.45,0,0,1-.26,3.24H572.73c.41,7.13,4.77,11.76,11.19,11.76a14.72,14.72,0,0,0,8.38-2.69l2,3.74a19.8,19.8,0,0,1-11.12,3.49C574.24,236.73,567.1,230.17,567.1,219.11Zm23.54-2.76c0-6.75-3-10.42-8.3-10.42-4.74,0-9,3.8-9.66,10.42Z"/><path class="cls-2" d="M604,202.23h4.71l.48,6.13h.19c2.34-4.28,5.78-7,9.57-7a7.77,7.77,0,0,1,3.6.7l-1.07,5a9.26,9.26,0,0,0-3.26-.56c-2.85,0-6.25,2.05-8.52,7.75V235.9H604Z"/><path class="cls-2" d="M466.36,273.57h7L482,297.86c1.09,3.11,2.13,6.32,3.23,9.47h.28c1.09-3.15,2.05-6.36,3.14-9.47l8.61-24.29h7V319h-5.38V294c0-4,.45-9.43.74-13.45h-.28l-3.61,10.37-8.56,23.52h-3.84l-8.6-23.52-3.6-10.37h-.28c.29,4,.73,9.49.73,13.45v25h-5.23Z"/><path class="cls-2" d="M513.69,302.24c0-11,7.38-17.71,15.13-17.71,8.59,0,13.44,6.17,13.44,15.8a17.41,17.41,0,0,1-.27,3.23H519.32c.41,7.14,4.77,11.76,11.19,11.76a14.72,14.72,0,0,0,8.38-2.69l2,3.74a19.83,19.83,0,0,1-11.12,3.49C520.83,319.86,513.69,313.3,513.69,302.24Zm23.54-2.76c0-6.74-3-10.41-8.31-10.41-4.73,0-9,3.8-9.65,10.41Z"/><path class="cls-2" d="M550.55,285.36h4.71l.48,4.88h.19c2.94-3.18,6.47-5.71,10.47-5.71,5.15,0,7.91,2.46,9.3,6.41,3.5-3.78,7-6.41,11.11-6.41,6.92,0,10.24,4.58,10.24,13.17V319h-5.69v-20.6c0-6.27-2-8.95-6.27-8.95-2.61,0-5.33,1.7-8.44,5.17V319H571v-20.6c0-6.27-2-8.95-6.26-8.95-2.53,0-5.33,1.7-8.44,5.17V319h-5.7Z"/><path class="cls-2" d="M613.26,315.55h-.19l-.54,3.48H608V269.68h5.7v13.5l-.19,6c3.08-2.66,6.83-4.69,10.58-4.69,8.7,0,13.38,6.75,13.38,17.13,0,11.5-6.9,18.2-14.59,18.2C619.72,319.86,616.24,318.25,613.26,315.55Zm18.3-13.81c0-7.44-2.54-12.42-8.88-12.42-2.85,0-5.81,1.57-9,4.6v17.65a13,13,0,0,0,8.2,3.5C627.45,315.07,631.56,310.05,631.56,301.74Z"/><path class="cls-2" d="M643.79,302.24c0-11,7.39-17.71,15.14-17.71,8.59,0,13.43,6.17,13.43,15.8a18.41,18.41,0,0,1-.26,3.23H649.42c.41,7.14,4.77,11.76,11.19,11.76a14.7,14.7,0,0,0,8.38-2.69l2,3.74a19.8,19.8,0,0,1-11.12,3.49C650.94,319.86,643.79,313.3,643.79,302.24Zm23.54-2.76c0-6.74-3-10.41-8.3-10.41-4.74,0-9,3.8-9.66,10.41Z"/><path class="cls-2" d="M680.65,285.36h4.71l.48,6.13H686c2.34-4.27,5.79-7,9.57-7a7.9,7.9,0,0,1,3.6.69l-1.07,5a9.26,9.26,0,0,0-3.26-.56c-2.85,0-6.25,2-8.52,7.75V319h-5.7Z"/><line class="cls-3" x1="424.22" y1="70.87" x2="424.22" y2="354.33"/></g></g></svg>